<svg width="230.79" height="64.024" data-name="Layer 1" version="1.1" viewBox="0 0 230.79 64.024" xmlns="http://www.w3.org/2000/svg">
 <path d="m72.416 0.0019531a13.73 13.73 0 0 0-9.6055 3.6914 1.34 1.34 0 0 0-0.41992 0.93945 1.37 1.37 0 0 0 0.38867 0.95117l1.7109 1.7695a1.31 1.31 0 0 0 1.709 0.11914 7.78 7.78 0 0 1 4.7109-1.5684 7.86 7.86 0 0 1 5.5801 13.43c-10.9 10.9-25.451-19.64-58.471-3.9297a4.49 4.49 0 0 0-2 6.2891l5.6602 9.791a4.49 4.49 0 0 0 6.0703 1.6699l0.14062-0.080078-0.11133 0.080078 2.5098-1.4102a57.53 57.53 0 0 0 7.9004-5.9004 1.39 1.39 0 0 1 1.8105 0 1.28 1.28 0 0 1 0.49023 1 1.32 1.32 0 0 1-0.42969 1 59.24 59.24 0 0 1-8.3301 6.1797h-0.080078l-2.5098 1.4004a7 7 0 0 1-3.4805 0.91016 7.22 7.22 0 0 1-6.2305-3.5703l-5.3496-9.25c-10.28 7.26-16.52 21.25-13.17 39a1.32 1.32 0 0 0 1.2793 1.0605h6.0996a1.3 1.3 0 0 0 1.291-1.1406 8.93 8.93 0 0 1 17.719 0 1.31 1.31 0 0 0 1.3008 1.1406h5.9395a1.3 1.3 0 0 0 1.291-1.1406 8.94 8.94 0 0 1 17.73 0 1.3 1.3 0 0 0 1.2891 1.1406h5.8711a1.3 1.3 0 0 0 1.2988-1.2812c0.14-8.27 2.3705-17.769 8.7305-22.529 22.03-16.48 16.241-30.61 11.141-35.74a13.73 13.73 0 0 0-9.4746-4.0215zm-13.367 24.475a2.64 2.64 0 0 1 0.37109 4.4863v-0.009766l-4.1992-2.1094a2.64 2.64 0 0 1 3.8281-2.3672zm127.29 3.8672v12.84a8.71 8.71 0 0 0-2.5898-1.7305 8.53 8.53 0 0 0-3.4902-0.63867 9.53 9.53 0 0 0-4.3203 1 9.88 9.88 0 0 0-3.2988 2.6699 12.18 12.18 0 0 0-2.1113 4 16.64 16.64 0 0 0-0.74024 5 19.61 19.61 0 0 0 0.66016 5.3184 11.4 11.4 0 0 0 1.8496 3.9004 7.93 7.93 0 0 0 6.5215 3.2402 9.23 9.23 0 0 0 4.4492-1 12.46 12.46 0 0 0 3.3809-2.7305l0.5 2.3516a1.38 1.38 0 0 0 1.4688 1.0684h3.5898v-35.289h-5.8691zm11.73 0v35.289h5.8594v-35.289h-5.8594zm-85.9 0.57031a20.21 20.21 0 0 0-7.4102 1.2891 15.83 15.83 0 0 0-5.6094 3.5996 16.05 16.05 0 0 0-3.5703 5.5605 19.36 19.36 0 0 0-1.2598 7.0996 18.62 18.62 0 0 0 1.2988 7.0508 15.9 15.9 0 0 0 3.7207 5.5605 17 17 0 0 0 5.8203 3.6289 21.08 21.08 0 0 0 7.5996 1.3008 21.62 21.62 0 0 0 6.3301-0.89062 18.16 18.16 0 0 0 5.5703-2.8105v-13.889h-11.439v3.6094a1.15 1.15 0 0 0 0.34961 0.83984 1.3 1.3 0 0 0 1 0.34961h4.3203v6.2305a16.6 16.6 0 0 1-2.9199 1.0898 13 13 0 0 1-3.3906 0.40039 13.18 13.18 0 0 1-4.8203-0.83984 10.21 10.21 0 0 1-3.6992-2.4395 11.1 11.1 0 0 1-2.3711-3.9199 15.4 15.4 0 0 1-0.83984-5.2617 15.06 15.06 0 0 1 0.7793-5 11.13 11.13 0 0 1 2.2305-3.8184 9.83 9.83 0 0 1 3.5-2.4414 11.86 11.86 0 0 1 4.5996-0.85938 16.15 16.15 0 0 1 2.7617 0.21094 15.42 15.42 0 0 1 2.1582 0.54883 10 10 0 0 1 1.75 0.78125l1.5703 0.9082a2 2 0 0 0 1.4902 0.3418 1.75 1.75 0 0 0 1.1211-0.8418l1.8301-2.8984a18.65 18.65 0 0 0-2.3516-1.8301 15.34 15.34 0 0 0-2.8398-1.4102 19.51 19.51 0 0 0-3.3691-0.91016 21.89 21.89 0 0 0-3.9102-0.33984zm29.32 9.9102a5.76 5.76 0 0 0-3.7012 1.1992 10.63 10.63 0 0 0-2.709 3.4707l-0.34961-2.75a1.42 1.42 0 0 0-1.7402-1.4707h-3.4414v24.35h5.8711v-15a11.15 11.15 0 0 1 0.85938-1.7285 5.76 5.76 0 0 1 1.0703-1.3008 4.42 4.42 0 0 1 1.3711-0.82031 4.87 4.87 0 0 1 1.7285-0.2793 8 8 0 0 1 1.3613 0.11914 6.89 6.89 0 0 0 1.0586 0.12109 1 1 0 0 0 0.61133-0.18164 1.14 1.14 0 0 0 0.33984-0.60938l0.37891-4.3906a4.53 4.53 0 0 0-2.709-0.72852zm15 0a14.5 14.5 0 0 0-10.111 3.8398l1.1504 1.8789a2.54 2.54 0 0 0 0.6914 0.74023 1.63 1.63 0 0 0 1 0.32031 2.59 2.59 0 0 0 1.2988-0.33008l1.291-0.75a9.81 9.81 0 0 1 1.6484-0.74024 7.19 7.19 0 0 1 2.3613-0.33984 3.84 3.84 0 0 1 3 1.1797 5.36 5.36 0 0 1 1 3.6211v1.4785a36.6 36.6 0 0 0-4.9414 0.41016 24 24 0 0 0-3.7793 0.89063 12.16 12.16 0 0 0-2.7305 1.2402 8.38 8.38 0 0 0-1.8086 1.5703 5.26 5.26 0 0 0-1 1.7402 5.66 5.66 0 0 0-0.31055 1.8496 7.31 7.31 0 0 0 0.51953 2.8691 5.53 5.53 0 0 0 1.4805 2.0605 6.18 6.18 0 0 0 2.25 1.25 9.26 9.26 0 0 0 2.8496 0.41016 11.78 11.78 0 0 0 2.3906-0.2207 10.24 10.24 0 0 0 2-0.64844 10.78 10.78 0 0 0 1.8203-1.0605 21.88 21.88 0 0 0 1.8086-1.4609l0.52148 1.7598a1.79 1.79 0 0 0 0.70899 1 2.78 2.78 0 0 0 1.291 0.25h2.6387v-15.369a11.56 11.56 0 0 0-0.59961-3.8008 8.55 8.55 0 0 0-1.7695-3 8.22 8.22 0 0 0-2.8496-1.9492 10 10 0 0 0-3.8203-0.68945zm63.354 0.074219a12.94 12.94 0 0 0-4.5547 0.94531 10.93 10.93 0 0 0-3.6797 2.5703 11.3 11.3 0 0 0-2.3106 3.8203 13.48 13.48 0 0 0-0.8086 4.6895 16 16 0 0 0 0.92969 5.6797 11.88 11.88 0 0 0 2.5391 4.0898 10.64 10.64 0 0 0 3.8008 2.4902 13.07 13.07 0 0 0 4.7305 0.83984 18.78 18.78 0 0 0 2.6094-0.19922 14 14 0 0 0 2.6797-0.65039 12.1 12.1 0 0 0 2.5312-1.2402 9.81 9.81 0 0 0 2.1797-1.9102l-1.7012-2.1602a1.22 1.22 0 0 0-1.0996-0.54883 2.25 2.25 0 0 0-1.1191 0.33008c-0.36 0.22-0.84133 0.46828-1.3613 0.73828a11 11 0 0 1-1.7988 0.73047 7.82 7.82 0 0 1-2.4609 0.33984 7.43 7.43 0 0 1-2.5996-0.43945 5.56 5.56 0 0 1-2-1.3301 6.74 6.74 0 0 1-1.3789-2.2598 11.66 11.66 0 0 1-0.66015-3.2402h15.09a1.18 1.18 0 0 0 1.0898-0.46094 3.83 3.83 0 0 0 0.28907-1.7891 12.92 12.92 0 0 0-0.78907-4.6895 10 10 0 0 0-2.2012-3.4707 9.24 9.24 0 0 0-3.3496-2.1504 12.94 12.94 0 0 0-4.5957-0.72461zm0.52344 4.1934a6.22 6.22 0 0 1 2.1719 0.44141 4.41 4.41 0 0 1 1.6309 1.2012 4.93 4.93 0 0 1 1 1.7598 7.21 7.21 0 0 1 0.32031 2.1504l-11.1-0.011719a7.1 7.1 0 0 1 1.8594-4.0996 6.22 6.22 0 0 1 4.1172-1.4414zm-38.727 0.19141a6.28 6.28 0 0 1 2.5293 0.5 5.71 5.71 0 0 1 2.1699 1.7109l0.00977 10.92a9.44 9.44 0 0 1-2.4199 2.1602 6 6 0 0 1-3.1094 0.75976 5 5 0 0 1-2.0703-0.41992 3.72 3.72 0 0 1-1.5606-1.3496 7.11 7.11 0 0 1-1-2.4199 16.31 16.31 0 0 1-0.33984-3.6211 14.71 14.71 0 0 1 0.40039-3.6699 7.27 7.27 0 0 1 1.1699-2.5703 4.76 4.76 0 0 1 1.8203-1.5 5.48 5.48 0 0 1 2.4004-0.5zm-21.82 9.9512v4.0898a9.45 9.45 0 0 1-2.5703 2 7 7 0 0 1-3.1309 0.64844 3.9 3.9 0 0 1-2.3789-0.66992 2.54 2.54 0 0 1-0.91992-2.1992 2.45 2.45 0 0 1 0.45899-1.4492 3.7 3.7 0 0 1 1.4902-1.1699 11.38 11.38 0 0 1 2.7793-0.81055 31.33 31.33 0 0 1 4.2715-0.43945z" fill="#02303a"/>
</svg>
